<svg id="Filled" height="512" viewBox="0 0 512 512" width="512" xmlns="http://www.w3.org/2000/svg"><path d="m295.786 148.325a175.853 175.853 0 0 1 80.214 147.675c0 32.909-8.288 93.444-15.123 137.772a63.989 63.989 0 0 1 -63.25 54.228h-195.254a63.989 63.989 0 0 1 -63.25-54.228c-6.835-44.328-15.123-104.863-15.123-137.772a175.853 175.853 0 0 1 80.214-147.675z" fill="#ad6643"/><rect fill="#ffd33a" height="64" rx="32" width="192" x="104" y="120"/><path d="m296 24h-192l40 128h112z" fill="#ad6643"/><circle cx="200" cy="328" fill="#ffd33a" r="80"/><path d="m224 344a24.022 24.022 0 0 1 -16 22.62v9.38a8 8 0 0 1 -16 0v-8h-8a8 8 0 0 1 0-16h16a8 8 0 0 0 0-16 24 24 0 0 1 -8-46.62v-9.38a8 8 0 0 1 16 0v8h8a8 8 0 0 1 0 16h-16a8 8 0 0 0 0 16 24.032 24.032 0 0 1 24 24z" fill="#ffb632"/><path d="m312 456h112v32h-112z" fill="#ffd33a"/><path d="m296 424h96v32h-96z" fill="#ffb632"/><path d="m296 392h112v32h-112z" fill="#ffd33a"/><path d="m296 360h128v32h-128z" fill="#ffb632"/><circle cx="432" cy="432" fill="#ffd33a" r="48"/><path d="m320 328h112v32h-112z" fill="#ffd33a"/><path d="m200 456h112v32h-112z" fill="#ffb632"/><path d="m184 424h112v32h-112z" fill="#ffd33a"/><path d="m200 392h112v32h-112z" fill="#ffb632"/><path d="m296 296h112v32h-112z" fill="#ffb632"/><circle cx="376" cy="240" fill="#ffd33a" r="48"/><path d="m208 376v-9.376a24 24 0 0 0 -8-46.624 8 8 0 0 1 0-16h16a8 8 0 0 0 0-16h-8v-8a8 8 0 0 0 -16 0v9.376a24 24 0 0 0 8 46.624 8 8 0 0 1 0 16h-16a8 8 0 0 0 0 16h8v8a8 8 0 0 0 16 0z"/><path d="m360 256a8 8 0 0 0 8 8 8 8 0 0 0 16 0v-2.165a15.986 15.986 0 0 0 -8-29.835h8a8 8 0 0 0 0-16 8 8 0 0 0 -16 0v2.165a15.986 15.986 0 0 0 8 29.835h-8a8 8 0 0 0 -8 8z"/><path d="m432 368a63.921 63.921 0 0 0 -16 2.025v-2.025h16a8 8 0 0 0 8-8v-32a8 8 0 0 0 -8-8h-16v-24a7.953 7.953 0 0 0 -1.623-4.816 63.976 63.976 0 0 0 -69.116-107.3 185.171 185.171 0 0 0 -42.06-39.85 40.138 40.138 0 0 0 -26.925-30.1l27.36-87.549a8 8 0 0 0 -7.636-10.385h-192a8 8 0 0 0 -7.636 10.386l27.36 87.549a40.14 40.14 0 0 0 -26.831 29.673 183.48 183.48 0 0 0 -80.893 152.392c0 33.313 8.275 93.972 15.216 138.99a71.99 71.99 0 0 0 71.157 61.01h328.627v-.025c.334 0 .665.025 1 .025a64 64 0 0 0 0-128zm-32 8.61a64.308 64.308 0 0 0 -10.265 7.39h-85.735v-16h96zm-208 71.39v-16h96v16zm104-96a7.967 7.967 0 0 0 -3.161.651 96.127 96.127 0 0 0 2.834-16.668c.109 0 .217.017.327.017h16v16zm-88 64v-16h96v16zm80-32h-9.986a94.667 94.667 0 0 0 9.986-17.449zm-30.894 0h-57.106a8 8 0 0 0 -8 8v15.6a80 80 0 1 1 88-79.6 79.189 79.189 0 0 1 -22.894 56zm46.894 64v-16h64a63.921 63.921 0 0 0 2.025 16zm66.025-32h-50.025v-16h56.61a63.614 63.614 0 0 0 -6.585 16zm53.975-64h-96v-16h96zm-24-48v16h-96v-16zm24-64a48 48 0 1 1 -48-48 48.053 48.053 0 0 1 48 48zm-138.882-208-35 112h-100.237l-35-112zm-156.618 97.208 7.868 25.178a8 8 0 0 0 7.632 5.614h112a8 8 0 0 0 7.636-5.614l7.868-25.178a24 24 0 0 1 -7.504 46.792h-128a24 24 0 0 1 -7.5-46.792zm-81.47 303.345c-6.857-44.467-15.03-104.253-15.03-136.553a167.459 167.459 0 0 1 65.518-133.115 40.062 40.062 0 0 0 38.482 29.115h128a40.063 40.063 0 0 0 38.378-28.751 169.339 169.339 0 0 1 29.934 30.043 63.864 63.864 0 0 0 1.423 94.708h-37.735a7.994 7.994 0 0 0 -6.975 4.089 96 96 0 1 0 -112.474 129.011 7.971 7.971 0 0 0 -.551 2.9v32a8 8 0 0 0 8 8h8v16h-89.627a55.69 55.69 0 0 1 -55.343-47.447zm160.97 31.447h96v16h-96zm112 16v-16h56.61a64.455 64.455 0 0 0 13.125 16zm112 0a48 48 0 1 1 48-48 48.053 48.053 0 0 1 -48 48z"/><path d="m448 416a8 8 0 0 0 -8-8 8 8 0 0 0 -16 0v2.165a15.986 15.986 0 0 0 8 29.835h-8a8 8 0 0 0 0 16 8 8 0 0 0 16 0v-2.165a15.986 15.986 0 0 0 -8-29.835h8a8 8 0 0 0 8-8z"/></svg>